<?xml version="1.0" encoding="UTF-8"?>
<svg id="Layer_1" xmlns="http://www.w3.org/2000/svg" version="1.1" viewBox="0 0 97 20">
  <!-- Generator: Adobe Illustrator 30.1.0, SVG Export Plug-In . SVG Version: 2.1.1 Build 136)  -->
  <defs>
    <style>
      .st0 {
        fill: #fff;
      }

      .st1 {
        fill: #bff747;
      }
    </style>
  </defs>
  <path class="st1" d="M3.43,19.86L6.27.14h5.08l2.84,19.73h-3.52l-.52-4.23h-2.67l-.55,4.23h-3.49ZM9.79,12.85l-.82-6.34c-.1-.76-.13-1.78-.13-2.56h-.07c0,.79-.03,1.8-.13,2.56l-.81,6.34h1.96Z"/>
  <path class="st1" d="M15.5.14h3.78v8.48h2.28V.14h3.81v19.73h-3.81v-8.48h-2.28v8.48h-3.78V.14Z"/>
  <path class="st0" d="M27.49,19.86V.14h5.67l1.86,13.87c.1.79.13,1.8.13,2.59h.07c0-.79.03-1.8.16-2.59L37.17.14h5.67v19.73h-3.49V6.53c0-.79.07-1.8.13-2.59h-.07c-.07.76-.16,1.8-.26,2.56l-2.02,13.36h-3.91l-2.02-13.42c-.13-.79-.23-1.8-.29-2.59h-.07c.07.79.16,1.8.16,2.59v13.42h-3.52Z"/>
  <path class="st0" d="M44.96,19.86V.14h7.43v2.79h-3.65v5.69h3.33v2.76h-3.33v5.69h3.65v2.79h-7.43Z"/>
  <path class="st0" d="M54.32,19.86V.14h6c2.31,0,3.88,1.32,3.88,3.35v13.02c0,2-1.56,3.35-3.88,3.35h-6ZM58.1,2.93v14.15h1.63c.39,0,.65-.23.65-.56V3.49c0-.34-.26-.56-.65-.56h-1.63Z"/>
  <path class="st0" d="M72.44,3.35c0-2,1.56-3.33,3.88-3.33h2.12c2.31,0,3.88,1.32,3.88,3.33v3.64h-3.81v-3.38c0-.34-.26-.56-.65-.56h-.98c-.39,0-.65.23-.65.56v12.79c0,.34.26.56.65.56h.98c.39,0,.65-.23.65-.56v-3.24h3.81v3.5c0,2-1.56,3.33-3.88,3.33h-2.12c-2.31,0-3.88-1.32-3.88-3.33V3.35Z"/>
  <path class="st0" d="M86.69.14l1.53,13.58c.1.79.13,1.8.13,2.57h.06c0-.76.03-1.78.1-2.57l1.53-13.58h3.52l-2.67,19.73h-5.05L83.17.14h3.52Z"/>
</svg>