<?xml version="1.0" encoding="UTF-8"?>
<svg id="Layer_1" xmlns="http://www.w3.org/2000/svg" version="1.1" viewBox="0 0 25 25">
  <!-- Generator: Adobe Illustrator 30.1.0, SVG Export Plug-In . SVG Version: 2.1.1 Build 136)  -->
  <defs>
    <style>
      .st0 {
        fill: #bff747;
      }
    </style>
  </defs>
  <path class="st0" d="M14.68,15.83c.09-.4-.02-.74-.31-1.04l-1.45-1.45c-.57-.52-1.19-.69-1.87-.52-.69.19-1.15.65-1.37,1.37-.12.47-.49,1.82-1.11,4.07-.07.26-.11.45-.13.57-.97,3.59-.87,3.2-1.06,3.91-.16.43-.43.65-.83.65H1.42c-.38,0-.68-.16-.91-.47-.22-.29-.28-.61-.18-.96.66-2.47.85-3.18,1.94-7.2.83-3.11,1.42-5.36,1.79-6.76.16-.59.45-1.09.88-1.5l3.89-3.89c.66-.67,1.46-1.01,2.41-1.01h10.08c.74,0,1.41.22,1.99.65.55.4.95.92,1.19,1.55.26.69.29,1.38.1,2.07-.21.81-.48,1.85-.83,3.11-.05.17-.12.42-.21.75-1.16,4.32-2.02,7.56-2.59,9.74-.17.43-.46.65-.85.65h-5.1c-.38,0-.68-.16-.91-.47-.22-.29-.29-.61-.21-.96l.78-2.88ZM12.66,9.25h2.93c.26,0,.48-.08.67-.23.21-.16.35-.36.41-.62l.52-1.94c.07-.45-.07-.77-.41-.96-.35-.21-.69-.16-1.04.13l-3.24,3.24c-.07.07-.09.15-.05.23.03.1.1.16.21.16Z"/>
</svg>